<svg width="800" height="800" viewBox="0 0 800 800" fill="none" xmlns="http://www.w3.org/2000/svg">
<path d="M80 80.3334H720C749.27 80.3334 773 104.062 773 133.333V666.666C773 695.936 749.27 719.666 720 719.666H80C50.7292 719.666 27 695.936 27 666.666V133.333C27 104.062 50.7289 80.3334 80 80.3334Z" fill="black" stroke="white" stroke-width="54"/>
<path fill-rule="evenodd" clip-rule="evenodd" d="M308.956 400.001L167.812 258.857L205.525 221.144L384.381 400.001L205.525 578.859L167.812 541.147L308.956 400.001ZM640 586.667H426.667V533.333H640V586.667Z" fill="black"/>
<path fill-rule="evenodd" clip-rule="evenodd" d="M308.956 400.001L167.812 258.857L205.525 221.144L384.381 400.001L205.525 578.859L167.812 541.147L308.956 400.001ZM640 586.667H426.667V533.333H640V586.667Z" fill="black"/>
<path fill-rule="evenodd" clip-rule="evenodd" d="M308.956 400.001L167.812 258.857L205.525 221.144L384.381 400.001L205.525 578.859L167.812 541.147L308.956 400.001ZM640 586.667H426.667V533.333H640V586.667Z" fill="white"/>
<path d="M308.956 400.001L167.812 258.857L205.525 221.144L384.381 400.001L205.525 578.859L167.812 541.147L308.956 400.001ZM640 586.667H426.667V533.333H640V586.667Z" stroke="white" stroke-width="20"/>
</svg>
