<svg width="128" height="128" viewBox="0 0 128 128" fill="none" xmlns="http://www.w3.org/2000/svg">
<g clip-path="url(#clip0_1_2)">
<path fill-rule="evenodd" clip-rule="evenodd" d="M81 36L64 0L47 36L46 38L37 28C35.8065 26.8065 34.1878 26.136 32.5 26.136C30.8122 26.136 29.1935 26.8065 28 28C26.8065 29.1935 26.136 30.8122 26.136 32.5C26.136 34.1878 26.8065 35.8065 28 37L38 47H36L0 64L36 81H38L28 91C27.4091 91.5909 26.9403 92.2925 26.6205 93.0646C26.3006 93.8367 26.136 94.6643 26.136 95.5C26.136 96.3357 26.3006 97.1633 26.6205 97.9354C26.9403 98.7075 27.4091 99.4091 28 100C28.5909 100.591 29.2925 101.06 30.0646 101.38C30.8367 101.699 31.6643 101.864 32.5 101.864C33.3357 101.864 34.1633 101.699 34.9354 101.38C35.7075 101.06 36.4091 100.591 37 100L46 90L47 92L64 128L81 92V90L90 100C90.5909 100.591 91.2925 101.06 92.0646 101.38C92.8367 101.699 93.6643 101.864 94.5 101.864C95.3357 101.864 96.1633 101.699 96.9354 101.38C97.7075 101.06 98.4091 100.591 99 100C99.5909 99.4091 100.06 98.7075 100.38 97.9354C100.699 97.1633 100.864 96.3357 100.864 95.5C100.864 94.6643 100.699 93.8367 100.38 93.0646C100.06 92.2925 99.5909 91.5909 99 91L90 82L92 81L128 64L92 47L90 46L99 37C100.193 35.8065 100.864 34.1878 100.864 32.5C100.864 30.8122 100.193 29.1935 99 28C97.8065 26.8065 96.1878 26.136 94.5 26.136C92.8122 26.136 91.1935 26.8065 90 28L81 38V36ZM64 38L62 43C58 51 51 58 43 62L38 64L43 66C51 70 58 77 62 85L64 90L66 85C70 77 77 70 85 66L90 64L85 62C77 58 70 51 66 43L64 38Z" fill="white"/>
<path d="M118 19C119.193 17.8065 119.864 16.1878 119.864 14.5C119.864 12.8122 119.193 11.1935 118 9.99999C116.807 8.80652 115.188 8.13603 113.5 8.13603C111.812 8.13603 110.193 8.80652 109 9.99999L106 13C105.409 13.5909 104.94 14.2925 104.62 15.0646C104.301 15.8367 104.136 16.6643 104.136 17.5C104.136 18.3357 104.301 19.1633 104.62 19.9354C104.94 20.7075 105.409 21.409 106 22C106.591 22.5909 107.293 23.0597 108.065 23.3795C108.837 23.6993 109.664 23.864 110.5 23.864C111.336 23.864 112.163 23.6993 112.935 23.3795C113.707 23.0597 114.409 22.5909 115 22L118 19ZM22 23C20 25 16 25 13 23L10 20C8.80653 18.8065 8.13605 17.1878 8.13605 15.5C8.13605 13.8122 8.80653 12.1935 10 11C11.1935 9.80652 12.8122 9.13603 14.5 9.13603C16.1878 9.13603 17.8065 9.80652 19 11L22 14C25 16 25 20 22 23ZM22 105C20 103 16 103 13 105L10 108C9.40906 108.591 8.94029 109.293 8.62047 110.065C8.30066 110.837 8.13605 111.664 8.13605 112.5C8.13605 113.336 8.30066 114.163 8.62047 114.935C8.94029 115.707 9.40906 116.409 10 117C11.1935 118.193 12.8122 118.864 14.5 118.864C15.3357 118.864 16.1633 118.699 16.9354 118.38C17.7075 118.06 18.4091 117.591 19 117L22 114C25 112 25 108 22 105ZM118 109C119.193 110.193 119.864 111.812 119.864 113.5C119.864 115.188 119.193 116.807 118 118C116.807 119.193 115.188 119.864 113.5 119.864C111.812 119.864 110.193 119.193 109 118L106 115C105.409 114.409 104.94 113.707 104.62 112.935C104.301 112.163 104.136 111.336 104.136 110.5C104.136 109.664 104.301 108.837 104.62 108.065C104.94 107.293 105.409 106.591 106 106C106.591 105.409 107.293 104.94 108.065 104.62C108.837 104.301 109.664 104.136 110.5 104.136C111.336 104.136 112.163 104.301 112.935 104.62C113.707 104.94 114.409 105.409 115 106L118 109Z" fill="white"/>
</g>
<defs>
<clipPath id="clip0_1_2">
<rect width="128" height="128" fill="white"/>
</clipPath>
</defs>
</svg>
